<svg xmlns:xlink="http://www.w3.org/1999/xlink" id="wave" style="transform:rotate(180deg); transition: 0.3s" viewBox="0 0 1919 310" version="1.1" xmlns="http://www.w3.org/2000/svg"><defs><linearGradient id="sw-gradient-0" x1="0" x2="0" y1="1" y2="0"><stop stop-color="rgba(62, 181.687, 243, 1)" offset="0%"/><stop stop-color="rgba(11, 255, 180.612, 1)" offset="100%"/></linearGradient></defs><path style="transform:translate(0, 0px); opacity:1" fill="url(#sw-gradient-0)" d="M0,0L80,41.3C160,83,320,165,480,186C640,207,800,165,960,129.2C1120,93,1280,62,1440,87.8C1600,114,1760,196,1920,222.2C2080,248,2240,217,2400,206.7C2560,196,2720,207,2880,222.2C3040,238,3200,258,3360,253.2C3520,248,3680,217,3840,217C4000,217,4160,248,4320,248C4480,248,4640,217,4800,191.2C4960,165,5120,145,5280,129.2C5440,114,5600,103,5760,118.8C5920,134,6080,176,6240,175.7C6400,176,6560,134,6720,103.3C6880,72,7040,52,7200,67.2C7360,83,7520,134,7680,149.8C7840,165,8000,145,8160,149.8C8320,155,8480,186,8640,186C8800,186,8960,155,9120,118.8C9280,83,9440,41,9600,51.7C9760,62,9920,124,10080,139.5C10240,155,10400,124,10560,139.5C10720,155,10880,217,11040,222.2C11200,227,11360,176,11440,149.8L11520,124L11520,310L11440,310C11360,310,11200,310,11040,310C10880,310,10720,310,10560,310C10400,310,10240,310,10080,310C9920,310,9760,310,9600,310C9440,310,9280,310,9120,310C8960,310,8800,310,8640,310C8480,310,8320,310,8160,310C8000,310,7840,310,7680,310C7520,310,7360,310,7200,310C7040,310,6880,310,6720,310C6560,310,6400,310,6240,310C6080,310,5920,310,5760,310C5600,310,5440,310,5280,310C5120,310,4960,310,4800,310C4640,310,4480,310,4320,310C4160,310,4000,310,3840,310C3680,310,3520,310,3360,310C3200,310,3040,310,2880,310C2720,310,2560,310,2400,310C2240,310,2080,310,1920,310C1760,310,1600,310,1440,310C1280,310,1120,310,960,310C800,310,640,310,480,310C320,310,160,310,80,310L0,310Z"/></svg>